<?xml version="1.0" standalone="no"?>
<!DOCTYPE svg PUBLIC "-//W3C//DTD SVG 20010904//EN"
 "http://www.w3.org/TR/2001/REC-SVG-20010904/DTD/svg10.dtd">
<svg version="1.0" xmlns="http://www.w3.org/2000/svg"
 width="506.000000pt" height="456.000000pt" viewBox="0 0 506.000000 456.000000"
 preserveAspectRatio="xMidYMid meet">

<g transform="translate(0.000000,456.000000) scale(0.100000,-0.100000)"
fill="#000000" stroke="none">
<path d="M953 4482 c-82 -83 -192 -133 -325 -147 -63 -6 -68 -8 -68 -30 0 -19
7 -24 42 -30 48 -8 83 -41 92 -86 3 -18 6 -87 6 -155 l0 -124 -46 35 c-162
124 -428 62 -537 -127 -54 -91 -70 -162 -71 -303 -1 -145 12 -206 66 -308 107
-201 389 -263 548 -120 l50 45 0 -51 c0 -28 1 -51 3 -51 8 0 190 81 246 109
l61 31 0 675 c0 431 -4 676 -10 680 -5 3 -31 -16 -57 -43z m-308 -604 c61 -61
68 -104 63 -401 -4 -262 -6 -276 -66 -339 -51 -55 -131 -58 -179 -5 -63 68
-87 172 -86 372 1 277 61 415 180 415 40 0 51 -5 88 -42z"/>
<path d="M1434 4009 c-133 -17 -204 -47 -257 -110 -94 -109 -56 -266 68 -285
68 -10 109 2 144 42 43 49 44 109 1 157 -34 39 -37 62 -14 95 54 78 193 64
230 -23 8 -21 15 -70 15 -120 1 -135 -20 -153 -244 -211 -189 -49 -250 -93
-283 -200 -16 -55 -19 -154 -4 -154 6 0 65 27 132 61 94 47 123 58 129 47 5
-7 9 -77 9 -155 l0 -143 28 0 c49 0 128 29 183 67 l53 36 15 -24 c45 -67 97
-85 216 -73 44 4 202 8 350 8 161 1 273 5 277 11 9 13 -10 35 -32 35 -56 0
-75 124 -67 455 5 227 16 273 74 330 67 65 155 51 197 -30 20 -38 21 -56 21
-367 0 -316 -1 -327 -21 -355 -12 -15 -30 -29 -42 -31 -30 -5 -50 -31 -31 -42
7 -5 122 -9 255 -10 205 0 243 2 254 15 15 19 9 26 -33 40 -60 19 -64 41 -74
415 l-9 335 -27 52 c-46 89 -130 133 -252 132 -125 0 -234 -49 -294 -134 l-21
-30 0 88 c0 53 -4 87 -10 87 -6 0 -27 -7 -47 -15 -68 -29 -158 -47 -263 -53
-87 -6 -105 -10 -108 -24 -2 -12 6 -19 32 -23 19 -4 45 -18 58 -32 l23 -25 3
-343 c3 -294 1 -348 -12 -374 -28 -52 -77 -50 -114 6 -15 24 -18 64 -22 343
-5 305 -6 317 -29 362 -45 92 -143 151 -269 163 -31 3 -73 7 -92 9 -19 2 -63
0 -96 -5z m186 -620 l0 -191 -39 -39 c-33 -33 -45 -39 -83 -39 -80 0 -118 51
-118 161 0 122 35 180 155 254 39 24 73 44 78 44 4 1 7 -85 7 -190z"/>
<path d="M3454 4006 c-218 -41 -364 -194 -396 -414 -24 -164 30 -348 133 -457
166 -175 464 -177 655 -3 51 47 114 137 114 164 0 24 -33 25 -48 2 -101 -146
-322 -164 -438 -36 -80 89 -108 193 -102 383 3 124 5 135 36 198 40 81 80 109
161 114 63 4 94 -8 124 -49 23 -30 20 -41 -28 -107 -48 -66 -22 -166 50 -197
47 -19 92 -17 143 6 34 15 47 29 64 66 54 123 -35 272 -192 318 -74 22 -195
27 -276 12z"/>
<path d="M4365 4006 c-241 -45 -395 -238 -395 -496 0 -296 205 -510 488 -510
116 0 245 49 331 126 86 77 144 184 100 184 -6 0 -31 -22 -55 -49 -61 -68
-135 -103 -217 -104 -168 -1 -282 103 -316 288 -20 106 -54 95 305 95 l316 0
-7 66 c-10 96 -30 154 -76 223 -94 141 -283 212 -474 177z m161 -62 c55 -26
77 -86 82 -226 l4 -118 -162 0 -162 0 7 83 c12 147 48 236 108 262 43 19 82
18 123 -1z"/>
<path d="M1235 3149 c-50 -32 -236 -107 -324 -130 -62 -17 -81 -26 -79 -38 2
-11 18 -18 52 -21 39 -4 53 -11 70 -33 21 -28 21 -36 21 -571 0 -500 -1 -544
-18 -569 -9 -14 -32 -30 -50 -35 -17 -4 -33 -16 -35 -25 -3 -16 18 -17 252
-17 220 0 256 2 256 15 0 8 -15 21 -34 29 -60 25 -61 29 -61 371 0 307 0 311
24 358 59 120 201 132 247 21 21 -50 20 -673 -1 -713 -15 -30 -33 -41 -66 -41
-12 0 -19 -7 -19 -20 0 -19 7 -20 255 -20 243 0 255 1 255 19 0 13 -9 20 -30
24 -16 4 -37 18 -47 34 -16 24 -19 62 -23 378 -5 380 -6 383 -65 453 -66 79
-207 104 -346 62 -62 -18 -81 -30 -131 -80 l-58 -58 0 314 c0 173 -3 314 -7
313 -5 0 -21 -9 -38 -20z"/>
<path d="M4733 2924 l-57 -86 -111 -53 c-60 -29 -172 -78 -247 -109 -154 -63
-204 -90 -218 -117 -6 -10 -15 -53 -20 -96 -6 -43 -13 -93 -16 -110 l-6 -33
116 0 116 0 0 53 c0 59 9 74 62 106 20 12 81 56 135 97 138 107 144 109 201
88 26 -9 62 -32 81 -51 29 -30 36 -33 48 -20 12 12 11 19 -8 52 l-23 38 65 -6
c74 -6 119 0 119 18 0 8 -23 15 -61 19 -110 11 -112 34 -8 96 38 22 73 50 79
60 14 27 7 25 -77 -12 -40 -17 -76 -29 -79 -25 -4 3 11 28 33 54 92 110 73
127 -29 26 -37 -37 -70 -64 -73 -62 -3 3 8 38 24 77 16 39 26 74 21 77 -5 3
-35 -33 -67 -81z"/>
<path d="M3189 2921 c-62 -89 -202 -189 -319 -227 -41 -13 -66 -27 -68 -38 -3
-14 8 -16 72 -16 l76 0 1 -142 c1 -79 3 -177 5 -218 5 -101 0 -120 -31 -120
-35 0 -31 -23 5 -37 28 -10 30 -15 30 -61 0 -32 -5 -54 -15 -62 -19 -16 -19
-30 0 -30 13 0 15 -12 13 -67 -3 -64 -5 -68 -36 -86 -42 -25 -77 -16 -99 26
-16 28 -19 71 -23 347 l-5 315 -27 47 c-33 54 -90 100 -168 130 -47 19 -75 22
-195 22 -121 1 -149 -2 -207 -22 -135 -47 -194 -120 -186 -233 3 -48 10 -65
33 -89 86 -90 239 -53 252 62 4 38 1 51 -27 90 -28 39 -31 50 -23 74 13 40 62
66 124 66 56 -1 89 -18 116 -59 25 -38 25 -208 1 -245 -25 -38 -109 -75 -227
-99 -57 -11 -125 -30 -150 -41 -93 -39 -150 -120 -159 -224 -7 -96 12 -159 67
-214 59 -59 110 -74 228 -68 98 5 161 30 223 88 19 18 36 28 37 24 33 -98 150
-137 296 -99 68 17 137 59 144 86 7 25 9 24 49 -11 108 -95 285 -116 419 -51
72 36 125 85 107 103 -8 8 -20 4 -48 -17 -103 -79 -221 -17 -223 118 -1 31 7
46 40 82 l42 45 113 0 114 0 0 -82 c0 -139 30 -206 111 -246 l43 -21 -55 -25
c-117 -54 -264 -73 -412 -53 l-58 7 25 -33 c36 -47 175 -164 254 -214 37 -24
105 -57 152 -74 153 -57 379 -51 541 15 35 14 64 24 66 22 7 -6 -169 -86 -237
-107 -97 -30 -280 -33 -379 -6 -141 38 -265 115 -412 254 l-101 97 -107 -18
c-213 -35 -435 -93 -618 -162 -73 -27 -97 -33 -112 -24 -15 7 -32 6 -63 -5
-24 -8 -56 -15 -71 -15 -16 0 -49 -6 -75 -14 -26 -8 -101 -31 -167 -51 -153
-47 -316 -110 -348 -135 -14 -11 -41 -20 -61 -20 -49 0 -85 -34 -94 -89 l-7
-43 -56 46 c-71 59 -94 59 -145 4 -40 -43 -141 -214 -188 -318 -69 -151 -74
-319 -11 -344 51 -19 81 3 175 130 38 51 89 108 112 125 l43 31 6 -37 c9 -56
51 -74 70 -31 9 18 7 31 -10 63 -19 38 -19 42 -3 56 30 26 80 48 87 37 12 -20
59 -9 154 34 130 59 347 137 516 185 185 53 249 61 122 17 -171 -60 -271 -135
-265 -199 4 -40 27 -44 132 -23 72 15 196 22 196 11 0 -3 -12 -16 -27 -29 -17
-15 -24 -29 -20 -39 9 -24 45 -20 92 8 50 31 56 31 93 0 27 -23 30 -29 21 -58
-13 -47 -11 -103 5 -117 8 -6 39 -15 68 -19 106 -15 175 -67 381 -290 86 -92
177 -183 204 -200 43 -29 54 -32 104 -29 161 11 239 213 279 720 6 75 17 154
24 176 15 42 59 116 75 126 5 4 32 -8 60 -25 65 -41 97 -37 222 25 129 64 264
163 381 277 111 109 137 155 138 241 0 96 22 115 60 53 38 -62 92 -83 121 -48
8 9 29 22 47 30 17 7 32 18 32 23 0 6 7 10 15 10 8 0 15 5 15 10 0 6 11 10 24
10 22 0 24 3 19 38 -4 31 0 44 21 69 14 17 26 40 26 51 0 20 24 52 39 52 4 0
17 9 29 20 39 37 26 128 -26 183 -78 83 -199 133 -299 123 -103 -9 -153 -47
-183 -138 l-17 -53 -17 95 c-9 52 -17 111 -18 130 l-3 35 -120 -3 c-188 -5
-642 -32 -714 -42 -36 -6 -85 -13 -108 -16 -26 -4 -54 -2 -73 6 l-30 12 0 198
0 197 146 6 c81 4 151 4 155 1 5 -3 9 -77 9 -165 0 -134 2 -161 15 -166 9 -3
76 -2 150 2 l135 7 0 158 0 157 129 8 c72 4 139 4 150 0 18 -5 21 -2 21 24 l0
31 -150 0 -150 0 0 140 c0 127 -2 140 -17 140 -10 0 -30 -19 -46 -44 -33 -53
-81 -98 -166 -155 -107 -73 -131 -81 -263 -81 l-118 0 0 140 c0 161 -6 169
-61 91z m-689 -831 c0 -153 -3 -197 -15 -221 -35 -68 -138 -92 -189 -44 -35
32 -47 67 -47 136 -1 74 15 127 51 177 26 36 52 56 165 128 11 7 23 13 28 13
4 1 7 -85 7 -189z m1540 -25 c0 -13 -91 -135 -115 -155 -27 -23 -47 9 -54 89
l-7 70 31 4 c55 8 145 2 145 -8z m-1106 -990 c43 -8 82 -18 86 -22 4 -4 18
-102 30 -218 12 -116 24 -213 27 -217 2 -5 1 -8 -4 -8 -4 1 -25 23 -46 49 -21
27 -93 106 -160 176 l-122 127 -45 -3 c-45 -4 -45 -3 -67 43 -12 26 -25 59
-29 74 l-7 27 129 -7 c70 -4 164 -13 208 -21z m-564 -285 c0 -8 -70 -50 -85
-50 -14 0 -2 31 17 44 25 18 68 21 68 6z m-1007 -107 c10 -27 12 -42 5 -51
-18 -21 -38 6 -38 49 0 49 14 50 33 2z"/>
<path d="M784 2834 c-38 -41 -66 -43 -174 -13 -148 41 -320 20 -417 -50 -86
-62 -123 -140 -123 -256 0 -60 5 -82 30 -132 51 -103 131 -164 350 -270 176
-85 230 -137 230 -219 0 -90 -84 -154 -200 -154 -36 0 -89 8 -116 17 -99 33
-210 181 -249 330 -14 52 -27 72 -47 73 -5 0 -8 -105 -8 -234 0 -224 1 -234
19 -229 10 2 28 18 40 34 12 16 30 29 41 29 10 0 60 -14 110 -31 260 -87 523
-20 601 154 32 71 35 230 4 292 -41 86 -119 145 -323 249 -221 112 -252 138
-252 214 0 92 69 152 172 152 136 -2 230 -80 299 -251 28 -66 37 -79 56 -79
l23 0 0 205 c0 189 -1 205 -17 204 -10 0 -32 -16 -49 -35z"/>
</g>
</svg>
